<?xml version="1.0" encoding="UTF-8"?>
<svg viewBox="0 0 27 27" version="1.1" xmlns="http://www.w3.org/2000/svg" xmlns:xlink="http://www.w3.org/1999/xlink">
    <defs>
        <polygon id="path-1" points="26.549 13.72545 26.549 0.451 0 0.451 0 13.72545 0 26.9999 26.549 26.9999 26.549 13.72545"></polygon>
    </defs>
    <g id="Page-1" stroke="none" stroke-width="1" fill="none" fill-rule="evenodd">
        <g id="107" transform="translate(0.000000, -1.000000)">
            <g id="Group-3" transform="translate(0.000000, 0.549300)">
                <mask id="mask-2" fill="white">
                    <use xlink:href="#path-1"></use>
                </mask>
                <g id="Clip-2"></g>
                <path d="M25.013,26.9999 C25.013,26.9999 26.549,26.9999 26.549,25.4639 L26.549,1.9869 C26.549,1.9869 26.549,0.4509 25.013,0.4509 L1.536,0.4509 C1.536,0.4509 0,0.4509 0,1.9869 L0,25.4639 C0,25.4639 0,26.9999 1.536,26.9999 L25.013,26.9999 Z" id="Fill-1" fill="#FFFFFF" mask="url(#mask-2)"></path>
            </g>
            <path d="M23.5872,7.3539 L23.5872,7.3539 L22.3212,7.3539 L21.8852,9.8529 C21.6062,9.7769 21.4132,9.5719 21.1292,9.2429 C20.7412,8.7959 20.2122,8.1849 19.1992,8.1849 C18.1882,8.1849 17.6572,8.7959 17.2712,9.2429 C16.9042,9.6649 16.6932,9.8849 16.2532,9.8849 C15.8132,9.8849 15.6022,9.6649 15.2362,9.2429 C14.8492,8.7959 14.3182,8.1849 13.3072,8.1849 C12.2942,8.1849 11.7652,8.7969 11.3792,9.2439 C11.0162,9.6649 10.8052,9.8849 10.3652,9.8849 C9.9252,9.8849 9.7142,9.6649 9.3482,9.2429 C8.9612,8.7959 8.4312,8.1849 7.4192,8.1849 C6.4072,8.1849 5.8772,8.7959 5.4902,9.2429 C5.1832,9.5969 4.9842,9.8089 4.6672,9.8669 L4.2282,7.3539 L2.9632,7.3539 L5.3852,21.1949 L21.1652,21.1949 L23.5872,7.3539 Z M21.6772,11.0429 L20.1182,19.9499 L6.4322,19.9499 L4.8752,11.0559 C5.6322,10.9199 6.0692,10.4159 6.4012,10.0329 C6.7682,9.6109 6.9792,9.3909 7.4192,9.3909 C7.8592,9.3909 8.0702,9.6109 8.4372,10.0329 C8.8232,10.4789 9.3542,11.0909 10.3652,11.0909 C11.3782,11.0909 11.9062,10.4789 12.2922,10.0319 C12.6562,9.6099 12.8672,9.3909 13.3072,9.3909 C13.7472,9.3909 13.9592,9.6109 14.3242,10.0329 C14.7112,10.4789 15.2412,11.0909 16.2532,11.0909 C17.2652,11.0909 17.7952,10.4789 18.1832,10.0329 C18.5482,9.6109 18.7592,9.3909 19.1992,9.3909 C19.6402,9.3909 19.8512,9.6109 20.2172,10.0329 C20.5392,10.4049 20.9602,10.8909 21.6772,11.0429 L21.6772,11.0429 Z M17.1192,15.5869 C17.1192,14.4219 16.8192,12.9199 15.3482,12.9199 C13.8752,12.9199 13.5752,14.4219 13.5752,15.5869 C13.5752,16.7509 13.8752,18.2519 15.3482,18.2519 C16.8192,18.2519 17.1192,16.7509 17.1192,15.5869 L17.1192,15.5869 Z M16.2852,15.5869 C16.2852,16.6559 16.0802,17.5569 15.3482,17.5569 C14.6152,17.5569 14.4102,16.6559 14.4102,15.5869 C14.4102,14.5169 14.6152,13.6169 15.3482,13.6169 C16.0802,13.6169 16.2852,14.5169 16.2852,15.5869 L16.2852,15.5869 Z M12.0812,15.4039 L12.0812,15.3889 C12.5712,15.2129 12.8062,14.8029 12.8062,14.2909 C12.8062,13.3819 11.9852,12.9199 11.1882,12.9199 C10.1542,12.9199 9.5322,13.6679 9.4882,14.6639 L10.3222,14.6639 C10.3092,14.1359 10.5942,13.6169 11.1732,13.6169 C11.6342,13.6169 11.9712,13.9099 11.9712,14.3419 C11.9712,14.9719 11.3932,15.1689 10.8352,15.1469 L10.8352,15.7709 C11.4942,15.7409 12.1762,15.8429 12.1762,16.6419 C12.1762,17.2279 11.7512,17.5569 11.1942,17.5569 C10.5432,17.5569 10.2052,17.0879 10.2282,16.4649 L9.3932,16.4649 C9.4142,17.5359 10.0082,18.2519 11.1942,18.2519 C12.1762,18.2519 13.0112,17.6519 13.0112,16.6849 C13.0112,16.0259 12.6592,15.5209 12.0812,15.4039 L12.0812,15.4039 Z" id="Fill-4" fill="#231F20"></path>
        </g>
    </g>
</svg>