<?xml version="1.0" encoding="UTF-8"?>
<svg viewBox="0 0 27 27" version="1.1" xmlns="http://www.w3.org/2000/svg" xmlns:xlink="http://www.w3.org/1999/xlink">
    <g id="Page-1" stroke="none" stroke-width="1" fill="none" fill-rule="evenodd">
        <g id="108" transform="translate(0.000000, -1.000000)">
            <g id="Group-3" transform="translate(0.000000, 0.549300)" fill="#FFFFFF">
                <path d="M25.0125,26.9999 C25.0125,26.9999 26.5485,26.9999 26.5485,25.4639 L26.5485,1.9869 C26.5485,1.9869 26.5485,0.4509 25.0125,0.4509 L1.5355,0.4509 C1.5355,0.4509 -0.0005,0.4509 -0.0005,1.9869 L-0.0005,25.4639 C-0.0005,25.4639 -0.0005,26.9999 1.5355,26.9999 L25.0125,26.9999 Z" id="Fill-1"></path>
            </g>
            <path d="M23.5868,6.1078 L23.5868,6.1078 L22.3218,6.1078 L21.8848,8.6068 C21.6058,8.5318 21.4138,8.3258 21.1288,7.9968 C20.7418,7.5498 20.2118,6.9388 19.1998,6.9388 C18.1878,6.9388 17.6568,7.5498 17.2708,7.9968 C16.9038,8.4188 16.6928,8.6388 16.2528,8.6388 C15.8128,8.6388 15.6018,8.4188 15.2358,7.9968 C14.8488,7.5498 14.3178,6.9388 13.3068,6.9388 C12.2948,6.9388 11.7658,7.5508 11.3788,7.9978 C11.0158,8.4188 10.8058,8.6388 10.3648,8.6388 C9.9248,8.6388 9.7138,8.4188 9.3478,7.9968 C8.9608,7.5498 8.4308,6.9388 7.4188,6.9388 C6.4068,6.9388 5.8768,7.5498 5.4898,7.9968 C5.1838,8.3518 4.9838,8.5628 4.6668,8.6218 L4.2278,6.1078 L2.9628,6.1078 L5.3848,19.9488 L21.1648,19.9488 L23.5868,6.1078 Z M21.6768,9.7968 L20.1178,18.7038 L6.4318,18.7038 L4.8748,9.8108 C5.6318,9.6738 6.0688,9.1698 6.4008,8.7868 C6.7678,8.3648 6.9788,8.1448 7.4188,8.1448 C7.8588,8.1448 8.0708,8.3648 8.4368,8.7868 C8.8228,9.2328 9.3538,9.8448 10.3648,9.8448 C11.3778,9.8448 11.9068,9.2328 12.2928,8.7858 C12.6558,8.3648 12.8668,8.1448 13.3068,8.1448 C13.7468,8.1448 13.9588,8.3648 14.3238,8.7868 C14.7108,9.2328 15.2408,9.8448 16.2528,9.8448 C17.2658,9.8448 17.7948,9.2328 18.1828,8.7868 C18.5478,8.3648 18.7588,8.1448 19.1998,8.1448 C19.6398,8.1448 19.8518,8.3648 20.2168,8.7868 C20.5388,9.1588 20.9608,9.6448 21.6768,9.7968 L21.6768,9.7968 Z M17.1198,14.3408 C17.1198,13.1758 16.8188,11.6748 15.3478,11.6748 C13.8748,11.6748 13.5748,13.1758 13.5748,14.3408 C13.5748,15.5048 13.8748,17.0068 15.3478,17.0068 C16.8188,17.0068 17.1198,15.5048 17.1198,14.3408 L17.1198,14.3408 Z M16.2848,14.3408 C16.2848,15.4098 16.0798,16.3118 15.3478,16.3118 C14.6148,16.3118 14.4098,15.4098 14.4098,14.3408 C14.4098,13.2718 14.6148,12.3708 15.3478,12.3708 C16.0798,12.3708 16.2848,13.2718 16.2848,14.3408 L16.2848,14.3408 Z M12.0808,14.1578 L12.0808,14.1428 C12.5708,13.9678 12.8058,13.5578 12.8058,13.0448 C12.8058,12.1358 11.9848,11.6748 11.1878,11.6748 C10.1538,11.6748 9.5318,12.4218 9.4878,13.4188 L10.3218,13.4188 C10.3088,12.8908 10.5948,12.3708 11.1728,12.3708 C11.6338,12.3708 11.9708,12.6638 11.9708,13.0958 C11.9708,13.7258 11.3928,13.9228 10.8358,13.9018 L10.8358,14.5248 C11.4938,14.4948 12.1758,14.5968 12.1758,15.3958 C12.1758,15.9818 11.7508,16.3118 11.1938,16.3118 C10.5428,16.3118 10.2058,15.8428 10.2278,15.2198 L9.3928,15.2198 C9.4148,16.2898 10.0078,17.0068 11.1938,17.0068 C12.1758,17.0068 13.0108,16.4068 13.0108,15.4398 C13.0108,14.7798 12.6588,14.2748 12.0808,14.1578 L12.0808,14.1578 Z M5.3848,22.4408 L21.1648,22.4408 L21.1648,21.1958 L5.3848,21.1958 L5.3848,22.4408 Z" id="Fill-4" fill="#231F20"></path>
        </g>
    </g>
</svg>