<?xml version="1.0" encoding="UTF-8"?>
<svg viewBox="0 0 27 27" version="1.1" xmlns="http://www.w3.org/2000/svg" xmlns:xlink="http://www.w3.org/1999/xlink">
    <defs>
        <polygon id="path-1" points="26.549 13.72545 26.549 0.451 0 0.451 0 13.72545 0 26.9999 26.549 26.9999 26.549 13.72545"></polygon>
    </defs>
    <g id="Page-1" stroke="none" stroke-width="1" fill="none" fill-rule="evenodd">
        <g id="110" transform="translate(0.000000, -1.000000)">
            <g id="Group-3" transform="translate(0.000000, 0.549300)">
                <mask id="mask-2" fill="white">
                    <use xlink:href="#path-1"></use>
                </mask>
                <g id="Clip-2"></g>
                <path d="M25.013,26.9999 C25.013,26.9999 26.549,26.9999 26.549,25.4639 L26.549,1.9869 C26.549,1.9869 26.549,0.4509 25.013,0.4509 L1.536,0.4509 C1.536,0.4509 0,0.4509 0,1.9869 L0,25.4639 C0,25.4639 0,26.9999 1.536,26.9999 L25.013,26.9999 Z" id="Fill-1" fill="#FFFFFF" mask="url(#mask-2)"></path>
            </g>
            <path d="M23.5872,8.0268 L23.5872,8.0268 L22.3212,8.0268 L21.8852,10.5258 C21.6062,10.4498 21.4132,10.2448 21.1292,9.9158 C20.7412,9.4688 20.2122,8.8578 19.1992,8.8578 C18.1882,8.8578 17.6572,9.4688 17.2712,9.9158 C17.2012,9.9948 17.1382,10.0668 17.0772,10.1308 L17.0772,9.7808 L17.0762,9.7808 C17.0682,8.4228 16.2482,7.2538 15.0762,6.7358 L15.0762,7.4268 C15.9012,7.8978 16.4592,8.7858 16.4592,9.8008 L16.4592,15.7218 L16.4612,15.7568 C16.4682,15.8158 16.4702,16.0798 16.3592,16.2028 C16.3302,16.2348 16.2762,16.2778 16.1462,16.2778 C16.0162,16.2778 15.9632,16.2358 15.9342,16.2038 C15.8562,16.1168 15.8332,15.9628 15.8292,15.8538 L15.8292,15.7878 C15.8302,15.7758 15.8302,15.7648 15.8322,15.7568 L15.8332,15.7398 L15.8332,12.6148 L15.2152,12.6148 L15.2152,12.6158 L15.2112,12.6158 L15.2112,15.7798 C15.2102,15.8048 15.2102,15.8338 15.2112,15.8648 L15.2112,17.5968 L15.2132,17.6308 C15.2192,17.6898 15.2222,17.9548 15.1112,18.0778 C15.0822,18.1108 15.0282,18.1528 14.8992,18.1528 C14.7682,18.1528 14.7152,18.1108 14.6872,18.0788 C14.6082,17.9938 14.5852,17.8418 14.5822,17.7338 L14.5822,17.6578 C14.5832,17.6488 14.5832,17.6388 14.5832,17.6308 L14.5852,17.6138 L14.5852,12.6188 L13.9642,12.6188 L13.9642,17.6478 C13.9622,17.6748 13.9622,17.7088 13.9642,17.7458 L13.9642,18.1988 L13.9652,18.2318 C13.9732,18.3108 13.9712,18.5608 13.8632,18.6798 C13.8342,18.7128 13.7802,18.7558 13.6502,18.7558 C13.5212,18.7558 13.4672,18.7128 13.4392,18.6798 C13.3302,18.5608 13.3272,18.3108 13.3352,18.2328 L13.3382,18.2158 L13.3382,17.7858 C13.3412,17.7178 13.3402,17.6608 13.3382,17.6218 L13.3382,12.6188 L12.7172,12.6188 L12.7172,17.6018 L12.7192,17.6338 L12.7192,17.6418 L12.7192,17.7628 C12.7132,17.8688 12.6882,18.0048 12.6162,18.0838 C12.5882,18.1148 12.5342,18.1578 12.4042,18.1578 C12.2742,18.1578 12.2212,18.1148 12.1922,18.0838 C12.0842,17.9638 12.0812,17.7128 12.0892,17.6358 L12.0922,17.6188 L12.0922,12.6188 L11.4732,12.6188 L11.4732,17.5878 C11.4642,17.6998 11.4422,18.1728 11.7312,18.4948 C11.8462,18.6238 12.0562,18.7768 12.4042,18.7768 C12.5502,18.7768 12.6712,18.7498 12.7712,18.7098 C12.8102,18.8398 12.8732,18.9768 12.9772,19.0918 C13.0922,19.2198 13.3022,19.3728 13.6502,19.3728 C13.9992,19.3728 14.2102,19.2198 14.3242,19.0918 C14.4302,18.9748 14.4922,18.8378 14.5312,18.7048 C14.6322,18.7448 14.7532,18.7718 14.8992,18.7718 C15.2472,18.7718 15.4572,18.6188 15.5722,18.4908 C15.8592,18.1698 15.8392,17.6958 15.8292,17.5828 L15.8292,16.8478 C15.9192,16.8778 16.0252,16.8958 16.1462,16.8958 C16.4942,16.8958 16.7052,16.7428 16.8202,16.6158 C17.1082,16.2938 17.0872,15.8208 17.0772,15.7078 L17.0772,11.6038 C17.5842,11.3928 17.9172,11.0108 18.1832,10.7058 C18.5482,10.2838 18.7592,10.0638 19.1992,10.0638 C19.6402,10.0638 19.8512,10.2838 20.2172,10.7058 C20.5392,11.0778 20.9602,11.5638 21.6772,11.7158 L20.1182,20.6228 L6.4322,20.6228 L4.8752,11.7288 C5.6322,11.5928 6.0692,11.0888 6.4012,10.7058 C6.7682,10.2838 6.9792,10.0638 7.4192,10.0638 C7.8592,10.0638 8.0702,10.2838 8.4362,10.7058 C8.6612,10.9658 8.9402,11.2808 9.3302,11.4998 L9.3302,14.2368 C9.3202,14.3498 9.3002,14.8218 9.5882,15.1438 C9.7032,15.2728 9.9132,15.4258 10.2642,15.4258 C10.6142,15.4258 10.8242,15.2728 10.9402,15.1438 C11.2282,14.8218 11.2062,14.3498 11.1972,14.2368 L11.1972,11.5198 C11.7682,11.4128 12.2872,11.1598 12.7172,10.8028 L12.7172,9.9238 C12.2162,10.5538 11.4452,10.9598 10.5792,10.9598 L10.5792,11.3038 L10.5782,11.3038 L10.5782,14.2518 L10.5812,14.2858 C10.5872,14.3438 10.5892,14.6078 10.4792,14.7318 C10.4492,14.7648 10.3962,14.8078 10.2642,14.8078 C10.1322,14.8078 10.0782,14.7648 10.0502,14.7328 C9.9412,14.6128 9.9392,14.3618 9.9462,14.2858 L9.9482,14.2688 L9.9482,9.8028 C9.9482,8.7318 10.5672,7.8038 11.4672,7.3558 L11.4672,6.6808 C10.2352,7.1618 9.3582,8.3488 9.3312,9.7428 L9.3302,9.7428 L9.3302,9.8948 C8.9442,9.4498 8.4162,8.8578 7.4192,8.8578 C6.4072,8.8578 5.8772,9.4688 5.4902,9.9158 C5.1832,10.2698 4.9842,10.4808 4.6672,10.5398 L4.2282,8.0268 L2.9632,8.0268 L5.3852,21.8678 L21.1652,21.8678 L23.5872,8.0268 Z" id="Fill-4" fill="#231F20"></path>
        </g>
    </g>
</svg>