<?xml version="1.0" encoding="UTF-8"?>
<svg viewBox="0 0 27 27" version="1.1" xmlns="http://www.w3.org/2000/svg" xmlns:xlink="http://www.w3.org/1999/xlink">
    <defs></defs>
    <g id="Page-1" stroke="none" stroke-width="1" fill="none" fill-rule="evenodd">
        <g id="111" transform="translate(0.000000, -1.000000)">
            <g id="Group-3" transform="translate(0.000000, 0.549300)" fill="#FFFFFF">
                <path d="M25.0125,26.9999 C25.0125,26.9999 26.5485,26.9999 26.5485,25.4639 L26.5485,1.9869 C26.5485,1.9869 26.5485,0.4509 25.0125,0.4509 L1.5355,0.4509 C1.5355,0.4509 -0.0005,0.4509 -0.0005,1.9869 L-0.0005,25.4639 C-0.0005,25.4639 -0.0005,26.9999 1.5355,26.9999 L25.0125,26.9999 Z" id="Fill-1"></path>
            </g>
            <path d="M23.5868,7.3534 L23.5868,7.3534 L22.3218,7.3534 L22.1128,8.5414 L21.5258,7.6994 L20.3578,8.5194 C20.0568,8.3244 19.6848,8.1844 19.1998,8.1844 C18.1878,8.1844 17.6568,8.7954 17.2708,9.2434 C16.9038,9.6644 16.6928,9.8854 16.2528,9.8854 C15.8128,9.8854 15.6018,9.6644 15.2358,9.2434 C14.8488,8.7954 14.3178,8.1844 13.3068,8.1844 C12.2948,8.1844 11.7658,8.7964 11.3788,9.2434 C11.0158,9.6644 10.8058,9.8854 10.3648,9.8854 C9.9248,9.8854 9.7138,9.6644 9.3478,9.2434 C8.9608,8.7954 8.4308,8.1844 7.4188,8.1844 C6.8968,8.1844 6.5028,8.3484 6.1908,8.5664 L4.9558,7.6994 L4.4218,8.4634 L4.2278,7.3534 L2.9628,7.3534 L5.0478,19.2664 L4.2428,19.8304 L4.9558,20.8494 L5.2838,20.6194 L5.3848,21.1954 L21.1648,21.1954 L21.2578,20.6614 L21.5258,20.8494 L22.2378,19.8304 L21.4938,19.3094 L23.5868,7.3534 Z M6.4108,19.8284 L13.2398,15.0334 L20.1318,19.8704 L20.1178,19.9494 L6.4318,19.9494 L6.4108,19.8284 Z M4.8748,11.0564 C5.5518,10.9344 5.9738,10.5184 6.2918,10.1574 L12.1588,14.2744 L6.1738,18.4754 L4.8748,11.0564 Z M5.2978,9.4584 C5.0878,9.6834 4.9128,9.8214 4.6668,9.8674 L4.4968,8.8964 L5.2978,9.4584 Z M8.4368,10.0324 C8.5188,10.1274 8.6078,10.2304 8.7068,10.3324 L7.3668,9.3924 C7.3838,9.3914 7.3998,9.3904 7.4188,9.3904 C7.8588,9.3904 8.0708,9.6104 8.4368,10.0324 L8.4368,10.0324 Z M16.7818,11.0294 L13.2398,13.5154 L9.5848,10.9494 C9.8098,11.0364 10.0658,11.0904 10.3648,11.0904 C11.3778,11.0904 11.9068,10.4784 12.2928,10.0324 C12.6558,9.6104 12.8668,9.3904 13.3068,9.3904 C13.7468,9.3904 13.9588,9.6104 14.3238,10.0324 C14.7108,10.4784 15.2408,11.0904 16.2528,11.0904 C16.4468,11.0904 16.6218,11.0684 16.7818,11.0294 L16.7818,11.0294 Z M19.1118,9.3944 L18.1508,10.0674 C18.1618,10.0564 18.1718,10.0444 18.1828,10.0324 C18.5238,9.6394 18.7298,9.4224 19.1118,9.3944 L19.1118,9.3944 Z M21.6758,11.0424 L20.3678,18.5184 L14.3218,14.2744 L20.2738,10.0974 C20.5888,10.4584 21.0008,10.8984 21.6758,11.0424 L21.6758,11.0424 Z M22.0618,8.8434 L21.8848,9.8524 C21.6528,9.7904 21.4818,9.6374 21.2678,9.3994 L22.0618,8.8434 Z" id="Fill-4" fill="#231F20"></path>
        </g>
    </g>
</svg>