<?xml version="1.0" encoding="UTF-8"?>
<svg viewBox="0 0 27 27" version="1.1" xmlns="http://www.w3.org/2000/svg" xmlns:xlink="http://www.w3.org/1999/xlink">
    <defs>
        <polygon id="path-1" points="0 0.45865616 26.9997966 0.45865616 26.9997966 27.4583511 0 27.4583511 0 0.458757858 -0.000203395959 27.4584528 26.9995932 27.4584528 26.9995932 0.458757858 -5.42101086e-20 0.458757858"></polygon>
    </defs>
    <g id="Page-1" stroke="none" stroke-width="1" fill="none" fill-rule="evenodd">
        <g id="203">
            <g id="Group-3" transform="translate(0.000000, -0.458351)">
                <mask id="mask-2" fill="white">
                    <use xlink:href="#path-1"></use>
                </mask>
                <g id="Clip-2"></g>
                <path d="M25.4375122,27.4584528 C25.4375122,27.4584528 26.9995932,27.4584528 26.9995932,25.8963777 L26.9995932,2.02083294 C26.9995932,2.02083294 26.9995932,0.458757858 25.4375122,0.458757858 L1.56187757,0.458757858 C1.56187757,0.458757858 -0.000203395959,0.458757858 -0.000203395959,2.02083294 L-0.000203395959,25.8963777 C-0.000203395959,25.8963777 -0.000203395959,27.4584528 1.56187757,27.4584528 L25.4375122,27.4584528 Z" id="Fill-1" fill="#FFFFFF" mask="url(#mask-2)"></path>
            </g>
            <path d="M17.2887582,12.1631342 L23.0682544,8.10743409 L22.3106045,7.02435469 L16.6277214,11.0129344 L13.5310179,5.62601274 L10.4170257,11.0434437 L4.69041252,7.02435469 L3.93276257,8.10743409 L9.75598888,12.1946605 L6.24740858,18.2985502 L3.93276257,19.9226609 L4.69041252,21.0057403 L4.6914295,21.0057403 L4.47888072,21.3749025 L22.583155,21.3749025 L22.3451818,20.9579424 L23.0682544,19.9226609 L20.8583573,18.3717725 L17.2887582,12.1631342 Z M18.2965852,16.573759 L14.6507126,14.0150475 L16.2005898,12.9268832 L18.2965852,16.573759 Z M7.2532016,19.2077268 L13.5005085,14.8225264 L19.8525643,19.280949 L20.2939335,20.0497829 L6.76810224,20.0497829 L7.2532016,19.2077268 Z M10.8441573,12.9584094 L12.3503043,14.0150475 L8.80918069,16.5015537 L10.8441573,12.9584094 Z M15.538536,11.7766834 L13.5005085,13.2075686 L11.5062111,11.8071927 L13.5310179,8.28438791 L15.538536,11.7766834 Z" id="Fill-4" fill="#231F20"></path>
        </g>
    </g>
</svg>