<?xml version="1.0" encoding="UTF-8"?>
<svg viewBox="0 0 27 27" version="1.1" xmlns="http://www.w3.org/2000/svg" xmlns:xlink="http://www.w3.org/1999/xlink">
    <defs></defs>
    <g id="Page-1" stroke="none" stroke-width="1" fill="none" fill-rule="evenodd">
        <g id="303" transform="translate(0.000000, -1.000000)">
            <g id="Group-3" transform="translate(0.000000, 0.549300)" fill="#FFFFFF">
                <path d="M25.0128,26.9999 C25.0128,26.9999 26.5488,26.9999 26.5488,25.4639 L26.5488,1.9869 C26.5488,1.9869 26.5488,0.4509 25.0128,0.4509 L1.5358,0.4509 C1.5358,0.4509 -0.0002,0.4509 -0.0002,1.9869 L-0.0002,25.4639 C-0.0002,25.4639 -0.0002,26.9999 1.5358,26.9999 L25.0128,26.9999 Z" id="Fill-1"></path>
            </g>
            <path d="M20.5469,9.9584 L22.6829,8.4584 L21.9389,7.3904 L20.5469,8.3684 L20.5469,7.0384 L6.0729,7.0384 L6.0729,8.4184 L4.6119,7.3904 L3.8669,8.4584 L6.0729,10.0084 L6.0729,18.5414 L3.8669,20.0914 L4.6119,21.1594 L6.0729,20.1304 L6.0729,21.5114 L20.5469,21.5114 L20.5469,20.1814 L21.9389,21.1594 L22.6829,20.0914 L20.5469,18.5904 L20.5469,9.9584 Z M7.3769,19.2154 L8.8499,18.1804 C9.9379,19.4224 11.5329,20.2084 13.3109,20.2084 C15.0719,20.2084 16.6569,19.4354 17.7449,18.2114 L19.2439,19.2664 L19.2439,20.2084 L7.3769,20.2084 L7.3769,19.2154 Z M17.4249,16.3964 L14.4059,14.2744 L17.4249,12.1534 C17.7549,12.7894 17.9419,13.5094 17.9419,14.2744 C17.9419,15.0394 17.7549,15.7604 17.4249,16.3964 L17.4249,16.3964 Z M9.1779,12.1894 L12.1439,14.2744 L9.1779,16.3594 C8.8589,15.7324 8.6799,15.0244 8.6799,14.2744 C8.6799,13.5244 8.8589,12.8164 9.1779,12.1894 L9.1779,12.1894 Z M9.9219,11.1234 C10.7679,10.2134 11.9739,9.6434 13.3109,9.6434 C14.6329,9.6434 15.8259,10.2014 16.6709,11.0924 L13.2749,13.4794 L9.9219,11.1234 Z M16.6709,17.4564 C15.8259,18.3484 14.6329,18.9064 13.3109,18.9064 C11.9739,18.9064 10.7679,18.3364 9.9219,17.4264 L13.2749,15.0704 L16.6709,17.4564 Z M7.3769,10.9234 L8.1029,11.4344 C7.6399,12.2784 7.3769,13.2464 7.3769,14.2744 C7.3769,15.3034 7.6399,16.2714 8.1029,17.1154 L7.3769,17.6254 L7.3769,10.9234 Z M19.2439,9.2844 L17.7449,10.3374 C16.6569,9.1144 15.0719,8.3414 13.3109,8.3414 C11.5329,8.3414 9.9379,9.1264 8.8499,10.3694 L7.3769,9.3344 L7.3769,8.3414 L19.2439,8.3414 L19.2439,9.2844 Z M19.2439,10.8744 L19.2439,17.6754 L18.4989,17.1514 C18.9729,16.2984 19.2439,15.3174 19.2439,14.2744 C19.2439,13.2314 18.9729,12.2514 18.4989,11.3984 L19.2439,10.8744 Z" id="Fill-4" fill="#231F20"></path>
        </g>
    </g>
</svg>