<?xml version="1.0" encoding="UTF-8"?>
<svg viewBox="0 0 27 27" version="1.1" xmlns="http://www.w3.org/2000/svg" xmlns:xlink="http://www.w3.org/1999/xlink">
    <defs>
        <polygon id="path-1" points="26.549 13.7254 26.549 0.451 0 0.451 0 13.7254 0 26.9998 26.549 26.9998 26.549 13.7254"></polygon>
    </defs>
    <g id="Page-1" stroke="none" stroke-width="1" fill="none" fill-rule="evenodd">
        <g id="403" transform="translate(0.000000, -1.000000)">
            <g id="Group-3" transform="translate(0.000000, 0.549300)">
                <mask id="mask-2" fill="white">
                    <use xlink:href="#path-1"></use>
                </mask>
                <g id="Clip-2"></g>
                <path d="M25.013,26.9998 C25.013,26.9998 26.549,26.9998 26.549,25.4638 L26.549,1.9868 C26.549,1.9868 26.549,0.4508 25.013,0.4508 L1.536,0.4508 C1.536,0.4508 0,0.4508 0,1.9868 L0,25.4638 C0,25.4638 0,26.9998 1.536,26.9998 L25.013,26.9998 Z" id="Fill-1" fill="#FFFFFF" mask="url(#mask-2)"></path>
            </g>
            <path d="M23.5872,21.1956 L2.9632,21.1956 L3.5522,20.2446 C4.3572,18.9446 5.7652,16.6746 6.1472,16.0746 C7.1262,14.5346 8.0132,13.4446 10.5072,13.4446 L20.2032,13.4446 L18.8962,8.5996 L8.0842,8.5996 L8.0842,7.3546 L19.8502,7.3546 L23.5872,21.1956 Z M5.2002,19.9506 L21.9602,19.9506 L20.5392,14.6896 L10.5072,14.6896 C8.5932,14.6896 8.0562,15.3936 7.1972,16.7436 C6.9012,17.2096 5.9742,18.7016 5.2002,19.9506 L5.2002,19.9506 Z" id="Fill-4" fill="#231F20"></path>
            <path d="M14.0247,18.1506 C14.4827,18.1506 14.8547,17.7786 14.8547,17.3196 C14.8547,16.8606 14.4827,16.4896 14.0247,16.4896 C13.5657,16.4896 13.1937,16.8606 13.1937,17.3196 C13.1937,17.7786 13.5657,18.1506 14.0247,18.1506" id="Fill-6" fill="#231F20"></path>
        </g>
    </g>
</svg>