<?xml version="1.0" encoding="UTF-8"?>
<svg viewBox="0 0 27 27" version="1.1" xmlns="http://www.w3.org/2000/svg" xmlns:xlink="http://www.w3.org/1999/xlink">
    <defs>
        <polygon id="path-1" points="26.5485 0.451 0 0.451 0 26.9998 26.5485 26.9998"></polygon>
    </defs>
    <g id="Page-1" stroke="none" stroke-width="1" fill="none" fill-rule="evenodd">
        <g id="404" transform="translate(0.000000, -1.000000)">
            <g id="Group-3" transform="translate(0.000000, 0.549300)">
                <mask id="mask-2" fill="white">
                    <use xlink:href="#path-1"></use>
                </mask>
                <g id="Clip-2"></g>
                <path d="M25.0125,26.9998 C25.0125,26.9998 26.5485,26.9998 26.5485,25.4638 L26.5485,1.9868 C26.5485,1.9868 26.5485,0.4508 25.0125,0.4508 L1.5355,0.4508 C1.5355,0.4508 -0.0005,0.4508 -0.0005,1.9868 L-0.0005,25.4638 C-0.0005,25.4638 -0.0005,26.9998 1.5355,26.9998 L25.0125,26.9998 Z" id="Fill-1" fill="#FFFFFF" mask="url(#mask-2)"></path>
            </g>
            <polygon id="Fill-4" fill="#231F20" points="21.5252 20.8489 4.2442 8.7189 4.9552 7.6999 22.2372 19.8299"></polygon>
            <polygon id="Fill-6" fill="#231F20" points="4.9559 20.8489 4.2439 19.8299 21.5249 7.6999 22.2369 8.7189"></polygon>
            <path d="M23.5868,21.1956 L2.9628,21.1956 L3.5518,20.2446 C4.3568,18.9446 5.7648,16.6746 6.1468,16.0746 C7.1258,14.5346 8.0128,13.4446 10.5068,13.4446 L20.2028,13.4446 L18.8968,8.5996 L8.0848,8.5996 L8.0848,7.3536 L19.8498,7.3536 L23.5868,21.1956 Z M5.1998,19.9496 L21.9598,19.9496 L20.5398,14.6896 L10.5068,14.6896 C8.5928,14.6896 8.0558,15.3936 7.1968,16.7426 C6.9008,17.2096 5.9738,18.7016 5.1998,19.9496 L5.1998,19.9496 Z" id="Fill-8" fill="#231F20"></path>
        </g>
    </g>
</svg>