<?xml version="1.0" encoding="UTF-8"?>
<svg viewBox="0 0 27 27" version="1.1" xmlns="http://www.w3.org/2000/svg" xmlns:xlink="http://www.w3.org/1999/xlink">
    <defs>
        <polygon id="path-1" points="13.27425 27 0 27 0 0.451 13.27425 0.451 26.5485 0.451 26.5485 27 13.27425 27"></polygon>
    </defs>
    <g id="Page-1" stroke="none" stroke-width="1" fill="none" fill-rule="evenodd">
        <g id="505" transform="translate(0.000000, -1.000000)">
            <g id="Group-3" transform="translate(0.000000, 0.549300)">
                <mask id="mask-2" fill="white">
                    <use xlink:href="#path-1"></use>
                </mask>
                <g id="Clip-2"></g>
                <path d="M25.0125,27 C25.0125,27 26.5485,27 26.5485,25.464 L26.5485,1.987 C26.5485,1.987 26.5485,0.451 25.0125,0.451 L1.5355,0.451 C1.5355,0.451 -0.0005,0.451 -0.0005,1.987 L-0.0005,25.464 C-0.0005,25.464 -0.0005,27 1.5355,27 L25.0125,27 Z" id="Fill-1" fill="#FFFFFF" mask="url(#mask-2)"></path>
            </g>
            <path d="M13.3084,22.0258 C9.0344,22.0258 5.5564,18.5488 5.5564,14.2748 C5.5564,10.0008 9.0344,6.5228 13.3084,6.5228 C17.5824,6.5228 21.0604,10.0008 21.0604,14.2748 C21.0604,18.5488 17.5824,22.0258 13.3084,22.0258 M13.3084,7.7688 C9.7214,7.7688 6.8034,10.6878 6.8034,14.2748 C6.8034,17.8628 9.7214,20.7808 13.3084,20.7808 C16.8964,20.7808 19.8144,17.8628 19.8144,14.2748 C19.8144,10.6878 16.8964,7.7688 13.3084,7.7688" id="Fill-4" fill="#231F20"></path>
            <polygon id="Fill-6" fill="#231F20" points="21.5604 20.8501 4.2764 8.7191 4.9894 7.7001 22.2724 19.8311"></polygon>
            <polygon id="Fill-8" fill="#231F20" points="4.9891 20.8501 4.2771 19.8311 21.5601 7.7001 22.2721 8.7191"></polygon>
        </g>
    </g>
</svg>