<?xml version="1.0" encoding="UTF-8"?>
<svg width="498px" height="161px" viewBox="0 0 498 161" version="1.1" xmlns="http://www.w3.org/2000/svg" xmlns:xlink="http://www.w3.org/1999/xlink">
    <defs>
        <path d="M257.917602,109.831421 C257.633475,87.4302443 277.881268,74.9286529 293.134406,67.4964866 C308.806258,59.8699177 314.070086,54.9799411 314.010269,48.1608912 C313.890637,37.7229595 301.508678,33.1171101 289.919284,32.9376614 C269.701399,32.6236262 257.94751,38.3958921 248.601225,42.7624767 L241.318599,8.68218124 C250.694793,4.36045883 268.056453,0.592036512 286.061137,0.427541887 C328.321302,0.427541887 355.971353,21.2884511 356.120893,53.634076 C356.285388,94.6829619 299.34034,96.9559785 299.729145,115.304606 C299.863732,120.867515 305.172422,126.804276 316.806678,128.314636 C322.56399,129.077293 338.460152,129.660501 356.479791,121.360999 L363.55306,154.334694 C353.862831,157.863852 341.406101,161.243469 325.898745,161.243469 C286.120953,161.243469 258.141913,140.098432 257.917602,109.831421 M431.519248,158.402198 C423.802954,158.402198 417.29794,153.901027 414.396853,146.992253 L354.027325,2.85009909 L396.257582,2.85009909 L404.661762,26.0737493 L456.268212,26.0737493 L461.143234,2.85009909 L498.363882,2.85009909 L465.88367,158.402198 L431.519248,158.402198 M437.4261,116.381298 L449.613656,57.9707525 L416.236202,57.9707525 L437.4261,116.381298 M206.714912,158.402198 L173.427181,2.85009909 L213.668548,2.85009909 L246.941325,158.402198 L206.714912,158.402198 M147.182812,158.402198 L105.296499,52.5274758 L88.3535523,142.550898 C86.3646627,152.600024 78.5137829,158.402198 69.7955678,158.402198 L1.32094168,158.402198 L0.363882049,153.886073 C14.4206954,150.835445 30.3916281,145.91556 40.0669029,140.651733 C45.9887093,137.43661 47.6785178,134.625248 49.6225451,126.983725 L81.713951,2.85009909 L124.243289,2.85009909 L189.442976,158.402198 L147.182812,158.402198" id="path-1"></path>
    </defs>
    <g id="Page-1" stroke="none" stroke-width="1" fill="none" fill-rule="evenodd">
        <g id="Visa_2014_logo_detail" transform="translate(-1.000000, -1.000000)">
            <g id="g10267" transform="translate(250.136117, 81.243469) scale(-1, 1) rotate(-180.000000) translate(-250.136117, -81.243469) translate(0.636117, 0.243469)">
                <g id="g10269-Clipped">
                    <use id="path10273" fill="#222357" xlink:href="#path-1"></use>
                </g>
            </g>
        </g>
    </g>
</svg>
